solid zone0
 facet normal -0.999552 0.0299176 0
  outer loop
   vertex -0.099821 0.00598042 0.1
   vertex -0.099821 0.00598042 0
   vertex -0.1 -1.22465e-17 0.1
  endloop
 endfacet
 facet normal -0.999552 0.0299176 0
  outer loop
   vertex -0.1 -1.22465e-17 0.1
   vertex -0.099821 0.00598042 0
   vertex -0.1 -1.22465e-17 0
  endloop
 endfacet
 facet normal -0.999552 -0.0299176 -0
  outer loop
   vertex -0.1 -1.22465e-17 0.1
   vertex -0.1 -1.22465e-17 0
   vertex -0.099821 -0.00598042 0.1
  endloop
 endfacet
 facet normal -0.999552 -0.0299176 -0
  outer loop
   vertex -0.099821 -0.00598042 0.1
   vertex -0.1 -1.22465e-17 0
   vertex -0.099821 -0.00598042 0
  endloop
 endfacet
 facet normal -0.995975 -0.0896364 -0
  outer loop
   vertex -0.099821 -0.00598042 0.1
   vertex -0.099821 -0.00598042 0
   vertex -0.0992847 -0.0119394 0.1
  endloop
 endfacet
 facet normal -0.995975 -0.0896364 -0
  outer loop
   vertex -0.0992847 -0.0119394 0.1
   vertex -0.099821 -0.00598042 0
   vertex -0.0992847 -0.0119394 0
  endloop
 endfacet
 facet normal -0.988832 -0.149036 -0
  outer loop
   vertex -0.0992847 -0.0119394 0.1
   vertex -0.0992847 -0.0119394 0
   vertex -0.098393 -0.0178557 0.1
  endloop
 endfacet
 facet normal -0.988832 -0.149036 -0
  outer loop
   vertex -0.098393 -0.0178557 0.1
   vertex -0.0992847 -0.0119394 0
   vertex -0.098393 -0.0178557 0
  endloop
 endfacet
 facet normal -0.978146 -0.207921 -0
  outer loop
   vertex -0.098393 -0.0178557 0.1
   vertex -0.098393 -0.0178557 0
   vertex -0.097149 -0.023708 0.1
  endloop
 endfacet
 facet normal -0.978146 -0.207921 -0
  outer loop
   vertex -0.097149 -0.023708 0.1
   vertex -0.098393 -0.0178557 0
   vertex -0.097149 -0.023708 0
  endloop
 endfacet
 facet normal -0.963964 -0.266032 -0
  outer loop
   vertex -0.097149 -0.023708 0.1
   vertex -0.097149 -0.023708 0
   vertex -0.0955573 -0.0294755 0.1
  endloop
 endfacet
 facet normal -0.963964 -0.266032 -0
  outer loop
   vertex -0.0955573 -0.0294755 0.1
   vertex -0.097149 -0.023708 0
   vertex -0.0955573 -0.0294755 0
  endloop
 endfacet
 facet normal -0.946327 -0.32321 -0
  outer loop
   vertex -0.0955573 -0.0294755 0.1
   vertex -0.0955573 -0.0294755 0
   vertex -0.0936235 -0.0351375 0.1
  endloop
 endfacet
 facet normal -0.946327 -0.32321 -0
  outer loop
   vertex -0.0936235 -0.0351375 0.1
   vertex -0.0955573 -0.0294755 0
   vertex -0.0936235 -0.0351375 0
  endloop
 endfacet
 facet normal -0.925301 -0.379233 -0
  outer loop
   vertex -0.0936235 -0.0351375 0.1
   vertex -0.0936235 -0.0351375 0
   vertex -0.0913545 -0.0406737 0.1
  endloop
 endfacet
 facet normal -0.925301 -0.379233 -0
  outer loop
   vertex -0.0913545 -0.0406737 0.1
   vertex -0.0936235 -0.0351375 0
   vertex -0.0913545 -0.0406737 0
  endloop
 endfacet
 facet normal -0.900971 -0.433879 -0
  outer loop
   vertex -0.0913545 -0.0406737 0.1
   vertex -0.0913545 -0.0406737 0
   vertex -0.0887586 -0.0460642 0.1
  endloop
 endfacet
 facet normal -0.900971 -0.433879 -0
  outer loop
   vertex -0.0887586 -0.0460642 0.1
   vertex -0.0913545 -0.0406737 0
   vertex -0.0887586 -0.0460642 0
  endloop
 endfacet
 facet normal -0.873408 -0.486988 -0
  outer loop
   vertex -0.0887586 -0.0460642 0.1
   vertex -0.0887586 -0.0460642 0
   vertex -0.0858449 -0.0512899 0.1
  endloop
 endfacet
 facet normal -0.873408 -0.486988 -0
  outer loop
   vertex -0.0858449 -0.0512899 0.1
   vertex -0.0887586 -0.0460642 0
   vertex -0.0858449 -0.0512899 0
  endloop
 endfacet
 facet normal -0.842722 -0.538349 -0
  outer loop
   vertex -0.0858449 -0.0512899 0.1
   vertex -0.0858449 -0.0512899 0
   vertex -0.0826239 -0.056332 0.1
  endloop
 endfacet
 facet normal -0.842722 -0.538349 -0
  outer loop
   vertex -0.0826239 -0.056332 0.1
   vertex -0.0858449 -0.0512899 0
   vertex -0.0826239 -0.056332 0
  endloop
 endfacet
 facet normal -0.809013 -0.58779 -0
  outer loop
   vertex -0.0826239 -0.056332 0.1
   vertex -0.0826239 -0.056332 0
   vertex -0.0791071 -0.0611724 0.1
  endloop
 endfacet
 facet normal -0.809013 -0.58779 -0
  outer loop
   vertex -0.0791071 -0.0611724 0.1
   vertex -0.0826239 -0.056332 0
   vertex -0.0791071 -0.0611724 0
  endloop
 endfacet
 facet normal -0.772418 -0.635115 -0
  outer loop
   vertex -0.0791071 -0.0611724 0.1
   vertex -0.0791071 -0.0611724 0
   vertex -0.0753071 -0.0657939 0.1
  endloop
 endfacet
 facet normal -0.772418 -0.635115 -0
  outer loop
   vertex -0.0753071 -0.0657939 0.1
   vertex -0.0791071 -0.0611724 0
   vertex -0.0753071 -0.0657939 0
  endloop
 endfacet
 facet normal -0.733053 -0.680171 -0
  outer loop
   vertex -0.0753071 -0.0657939 0.1
   vertex -0.0753071 -0.0657939 0
   vertex -0.0712376 -0.0701798 0.1
  endloop
 endfacet
 facet normal -0.733053 -0.680171 -0
  outer loop
   vertex -0.0712376 -0.0701798 0.1
   vertex -0.0753071 -0.0657939 0
   vertex -0.0712376 -0.0701798 0
  endloop
 endfacet
 facet normal -0.691067 -0.722791 -0
  outer loop
   vertex -0.0712376 -0.0701798 0.1
   vertex -0.0712376 -0.0701798 0
   vertex -0.0669131 -0.0743145 0.1
  endloop
 endfacet
 facet normal -0.691067 -0.722791 -0
  outer loop
   vertex -0.0669131 -0.0743145 0.1
   vertex -0.0712376 -0.0701798 0
   vertex -0.0669131 -0.0743145 0
  endloop
 endfacet
 facet normal -0.646601 -0.762828 -0
  outer loop
   vertex -0.0669131 -0.0743145 0.1
   vertex -0.0669131 -0.0743145 0
   vertex -0.062349 -0.0781832 0.1
  endloop
 endfacet
 facet normal -0.646601 -0.762828 -0
  outer loop
   vertex -0.062349 -0.0781832 0.1
   vertex -0.0669131 -0.0743145 0
   vertex -0.062349 -0.0781832 0
  endloop
 endfacet
 facet normal -0.599811 -0.800142 -0
  outer loop
   vertex -0.062349 -0.0781832 0.1
   vertex -0.062349 -0.0781832 0
   vertex -0.0575617 -0.0817719 0.1
  endloop
 endfacet
 facet normal -0.599811 -0.800142 -0
  outer loop
   vertex -0.0575617 -0.0817719 0.1
   vertex -0.062349 -0.0781832 0
   vertex -0.0575617 -0.0817719 0
  endloop
 endfacet
 facet normal -0.550903 -0.834569 -0
  outer loop
   vertex -0.0575617 -0.0817719 0.1
   vertex -0.0575617 -0.0817719 0
   vertex -0.0525684 -0.085068 0.1
  endloop
 endfacet
 facet normal -0.550903 -0.834569 -0
  outer loop
   vertex -0.0525684 -0.085068 0.1
   vertex -0.0575617 -0.0817719 0
   vertex -0.0525684 -0.085068 0
  endloop
 endfacet
 facet normal -0.500007 -0.866021 -0
  outer loop
   vertex -0.0525684 -0.085068 0.1
   vertex -0.0525684 -0.085068 0
   vertex -0.0473869 -0.0880596 0.1
  endloop
 endfacet
 facet normal -0.500007 -0.866021 -0
  outer loop
   vertex -0.0473869 -0.0880596 0.1
   vertex -0.0525684 -0.085068 0
   vertex -0.0473869 -0.0880596 0
  endloop
 endfacet
 facet normal -0.447307 -0.89438 -0
  outer loop
   vertex -0.0473869 -0.0880596 0.1
   vertex -0.0473869 -0.0880596 0
   vertex -0.0420357 -0.0907359 0.1
  endloop
 endfacet
 facet normal -0.447307 -0.89438 -0
  outer loop
   vertex -0.0420357 -0.0907359 0.1
   vertex -0.0473869 -0.0880596 0
   vertex -0.0420357 -0.0907359 0
  endloop
 endfacet
 facet normal -0.393026 -0.919528 -0
  outer loop
   vertex -0.0420357 -0.0907359 0.1
   vertex -0.0420357 -0.0907359 0
   vertex -0.0365341 -0.0930874 0.1
  endloop
 endfacet
 facet normal -0.393026 -0.919528 -0
  outer loop
   vertex -0.0365341 -0.0930874 0.1
   vertex -0.0420357 -0.0907359 0
   vertex -0.0365341 -0.0930874 0
  endloop
 endfacet
 facet normal -0.337334 -0.941385 -0
  outer loop
   vertex -0.0365341 -0.0930874 0.1
   vertex -0.0365341 -0.0930874 0
   vertex -0.0309017 -0.0951057 0.1
  endloop
 endfacet
 facet normal -0.337334 -0.941385 -0
  outer loop
   vertex -0.0309017 -0.0951057 0.1
   vertex -0.0365341 -0.0930874 0
   vertex -0.0309017 -0.0951057 0
  endloop
 endfacet
 facet normal -0.280424 -0.959876 -0
  outer loop
   vertex -0.0309017 -0.0951057 0.1
   vertex -0.0309017 -0.0951057 0
   vertex -0.0251587 -0.0967835 0.1
  endloop
 endfacet
 facet normal -0.280424 -0.959876 -0
  outer loop
   vertex -0.0251587 -0.0967835 0.1
   vertex -0.0309017 -0.0951057 0
   vertex -0.0251587 -0.0967835 0
  endloop
 endfacet
 facet normal -0.222511 -0.97493 -0
  outer loop
   vertex -0.0251587 -0.0967835 0.1
   vertex -0.0251587 -0.0967835 0
   vertex -0.0193256 -0.0981148 0.1
  endloop
 endfacet
 facet normal -0.222511 -0.97493 -0
  outer loop
   vertex -0.0193256 -0.0981148 0.1
   vertex -0.0251587 -0.0967835 0
   vertex -0.0193256 -0.0981148 0
  endloop
 endfacet
 facet normal -0.163827 -0.986489 -0
  outer loop
   vertex -0.0193256 -0.0981148 0.1
   vertex -0.0193256 -0.0981148 0
   vertex -0.0134233 -0.099095 0.1
  endloop
 endfacet
 facet normal -0.163827 -0.986489 -0
  outer loop
   vertex -0.0134233 -0.099095 0.1
   vertex -0.0193256 -0.0981148 0
   vertex -0.0134233 -0.099095 0
  endloop
 endfacet
 facet normal -0.104529 -0.994522 -0
  outer loop
   vertex -0.0134233 -0.099095 0.1
   vertex -0.0134233 -0.099095 0
   vertex -0.00747301 -0.0997204 0.1
  endloop
 endfacet
 facet normal -0.104529 -0.994522 -0
  outer loop
   vertex -0.00747301 -0.0997204 0.1
   vertex -0.0134233 -0.099095 0
   vertex -0.00747301 -0.0997204 0
  endloop
 endfacet
 facet normal -0.0448597 -0.998993 -0
  outer loop
   vertex -0.00747301 -0.0997204 0.1
   vertex -0.00747301 -0.0997204 0
   vertex -0.00149594 -0.0999888 0.1
  endloop
 endfacet
 facet normal -0.0448597 -0.998993 -0
  outer loop
   vertex -0.00149594 -0.0999888 0.1
   vertex -0.00747301 -0.0997204 0
   vertex -0.00149594 -0.0999888 0
  endloop
 endfacet
 facet normal 0.0149595 -0.999888 0
  outer loop
   vertex -0.00149594 -0.0999888 0.1
   vertex -0.00149594 -0.0999888 0
   vertex 0.00448648 -0.0998993 0.1
  endloop
 endfacet
 facet normal 0.0149595 -0.999888 0
  outer loop
   vertex 0.00448648 -0.0998993 0.1
   vertex -0.00149594 -0.0999888 0
   vertex 0.00448648 -0.0998993 0
  endloop
 endfacet
 facet normal 0.0747281 -0.997204 0
  outer loop
   vertex 0.00448648 -0.0998993 0.1
   vertex 0.00448648 -0.0998993 0
   vertex 0.0104528 -0.0994522 0.1
  endloop
 endfacet
 facet normal 0.0747281 -0.997204 0
  outer loop
   vertex 0.0104528 -0.0994522 0.1
   vertex 0.00448648 -0.0998993 0
   vertex 0.0104528 -0.0994522 0
  endloop
 endfacet
 facet normal 0.134227 -0.990951 0
  outer loop
   vertex 0.0104528 -0.0994522 0.1
   vertex 0.0104528 -0.0994522 0
   vertex 0.0163818 -0.0986491 0.1
  endloop
 endfacet
 facet normal 0.134227 -0.990951 0
  outer loop
   vertex 0.0163818 -0.0986491 0.1
   vertex 0.0104528 -0.0994522 0
   vertex 0.0163818 -0.0986491 0
  endloop
 endfacet
 facet normal 0.193261 -0.981147 0
  outer loop
   vertex 0.0163818 -0.0986491 0.1
   vertex 0.0163818 -0.0986491 0
   vertex 0.0222521 -0.0974928 0.1
  endloop
 endfacet
 facet normal 0.193261 -0.981147 0
  outer loop
   vertex 0.0222521 -0.0974928 0.1
   vertex 0.0163818 -0.0986491 0
   vertex 0.0222521 -0.0974928 0
  endloop
 endfacet
 facet normal 0.251594 -0.967833 0
  outer loop
   vertex 0.0222521 -0.0974928 0.1
   vertex 0.0222521 -0.0974928 0
   vertex 0.0280427 -0.0959875 0.1
  endloop
 endfacet
 facet normal 0.251594 -0.967833 0
  outer loop
   vertex 0.0280427 -0.0959875 0.1
   vertex 0.0222521 -0.0974928 0
   vertex 0.0280427 -0.0959875 0
  endloop
 endfacet
 facet normal 0.309018 -0.951056 0
  outer loop
   vertex 0.0280427 -0.0959875 0.1
   vertex 0.0280427 -0.0959875 0
   vertex 0.033733 -0.0941386 0.1
  endloop
 endfacet
 facet normal 0.309018 -0.951056 0
  outer loop
   vertex 0.033733 -0.0941386 0.1
   vertex 0.0280427 -0.0959875 0
   vertex 0.033733 -0.0941386 0
  endloop
 endfacet
 facet normal 0.365331 -0.930878 0
  outer loop
   vertex 0.033733 -0.0941386 0.1
   vertex 0.033733 -0.0941386 0
   vertex 0.0393025 -0.0919528 0.1
  endloop
 endfacet
 facet normal 0.365331 -0.930878 0
  outer loop
   vertex 0.0393025 -0.0919528 0.1
   vertex 0.033733 -0.0941386 0
   vertex 0.0393025 -0.0919528 0
  endloop
 endfacet
 facet normal 0.420367 -0.907354 0
  outer loop
   vertex 0.0393025 -0.0919528 0.1
   vertex 0.0393025 -0.0919528 0
   vertex 0.0447313 -0.0894377 0.1
  endloop
 endfacet
 facet normal 0.420367 -0.907354 0
  outer loop
   vertex 0.0447313 -0.0894377 0.1
   vertex 0.0393025 -0.0919528 0
   vertex 0.0447313 -0.0894377 0
  endloop
 endfacet
 facet normal 0.473867 -0.880596 0
  outer loop
   vertex 0.0447313 -0.0894377 0.1
   vertex 0.0447313 -0.0894377 0
   vertex 0.05 -0.0866025 0.1
  endloop
 endfacet
 facet normal 0.473867 -0.880596 0
  outer loop
   vertex 0.05 -0.0866025 0.1
   vertex 0.0447313 -0.0894377 0
   vertex 0.05 -0.0866025 0
  endloop
 endfacet
 facet normal 0.525682 -0.850681 0
  outer loop
   vertex 0.05 -0.0866025 0.1
   vertex 0.05 -0.0866025 0
   vertex 0.0550897 -0.0834573 0.1
  endloop
 endfacet
 facet normal 0.525682 -0.850681 0
  outer loop
   vertex 0.0550897 -0.0834573 0.1
   vertex 0.05 -0.0866025 0
   vertex 0.0550897 -0.0834573 0
  endloop
 endfacet
 facet normal 0.575608 -0.817726 0
  outer loop
   vertex 0.0550897 -0.0834573 0.1
   vertex 0.0550897 -0.0834573 0
   vertex 0.0599822 -0.0800134 0.1
  endloop
 endfacet
 facet normal 0.575608 -0.817726 0
  outer loop
   vertex 0.0599822 -0.0800134 0.1
   vertex 0.0550897 -0.0834573 0
   vertex 0.0599822 -0.0800134 0
  endloop
 endfacet
 facet normal 0.623488 -0.781833 0
  outer loop
   vertex 0.0599822 -0.0800134 0.1
   vertex 0.0599822 -0.0800134 0
   vertex 0.06466 -0.076283 0.1
  endloop
 endfacet
 facet normal 0.623488 -0.781833 0
  outer loop
   vertex 0.06466 -0.076283 0.1
   vertex 0.0599822 -0.0800134 0
   vertex 0.06466 -0.076283 0
  endloop
 endfacet
 facet normal 0.669133 -0.743142 0
  outer loop
   vertex 0.06466 -0.076283 0.1
   vertex 0.06466 -0.076283 0
   vertex 0.0691063 -0.0722795 0.1
  endloop
 endfacet
 facet normal 0.669133 -0.743142 0
  outer loop
   vertex 0.0691063 -0.0722795 0.1
   vertex 0.06466 -0.076283 0
   vertex 0.0691063 -0.0722795 0
  endloop
 endfacet
 facet normal 0.712378 -0.701796 0
  outer loop
   vertex 0.0691063 -0.0722795 0.1
   vertex 0.0691063 -0.0722795 0
   vertex 0.0733052 -0.0680173 0.1
  endloop
 endfacet
 facet normal 0.712378 -0.701796 0
  outer loop
   vertex 0.0733052 -0.0680173 0.1
   vertex 0.0691063 -0.0722795 0
   vertex 0.0733052 -0.0680173 0
  endloop
 endfacet
 facet normal 0.753072 -0.657938 0
  outer loop
   vertex 0.0733052 -0.0680173 0.1
   vertex 0.0733052 -0.0680173 0
   vertex 0.0772417 -0.0635116 0.1
  endloop
 endfacet
 facet normal 0.753072 -0.657938 0
  outer loop
   vertex 0.0772417 -0.0635116 0.1
   vertex 0.0733052 -0.0680173 0
   vertex 0.0772417 -0.0635116 0
  endloop
 endfacet
 facet normal 0.791075 -0.61172 0
  outer loop
   vertex 0.0772417 -0.0635116 0.1
   vertex 0.0772417 -0.0635116 0
   vertex 0.0809017 -0.0587785 0.1
  endloop
 endfacet
 facet normal 0.791075 -0.61172 0
  outer loop
   vertex 0.0809017 -0.0587785 0.1
   vertex 0.0772417 -0.0635116 0
   vertex 0.0809017 -0.0587785 0
  endloop
 endfacet
 facet normal 0.826235 -0.563326 0
  outer loop
   vertex 0.0809017 -0.0587785 0.1
   vertex 0.0809017 -0.0587785 0
   vertex 0.0842721 -0.0538351 0.1
  endloop
 endfacet
 facet normal 0.826235 -0.563326 0
  outer loop
   vertex 0.0842721 -0.0538351 0.1
   vertex 0.0809017 -0.0587785 0
   vertex 0.0842721 -0.0538351 0
  endloop
 endfacet
 facet normal 0.858452 -0.512895 0
  outer loop
   vertex 0.0842721 -0.0538351 0.1
   vertex 0.0842721 -0.0538351 0
   vertex 0.0873408 -0.0486989 0.1
  endloop
 endfacet
 facet normal 0.858452 -0.512895 0
  outer loop
   vertex 0.0873408 -0.0486989 0.1
   vertex 0.0842721 -0.0538351 0
   vertex 0.0873408 -0.0486989 0
  endloop
 endfacet
 facet normal 0.887583 -0.460647 0
  outer loop
   vertex 0.0873408 -0.0486989 0.1
   vertex 0.0873408 -0.0486989 0
   vertex 0.0900969 -0.0433884 0.1
  endloop
 endfacet
 facet normal 0.887583 -0.460647 0
  outer loop
   vertex 0.0900969 -0.0433884 0.1
   vertex 0.0873408 -0.0486989 0
   vertex 0.0900969 -0.0433884 0
  endloop
 endfacet
 facet normal 0.91355 -0.406726 0
  outer loop
   vertex 0.0900969 -0.0433884 0.1
   vertex 0.0900969 -0.0433884 0
   vertex 0.0925304 -0.0379225 0.1
  endloop
 endfacet
 facet normal 0.91355 -0.406726 0
  outer loop
   vertex 0.0925304 -0.0379225 0.1
   vertex 0.0900969 -0.0433884 0
   vertex 0.0925304 -0.0379225 0
  endloop
 endfacet
 facet normal 0.936234 -0.351378 0
  outer loop
   vertex 0.0925304 -0.0379225 0.1
   vertex 0.0925304 -0.0379225 0
   vertex 0.0946327 -0.032321 0.1
  endloop
 endfacet
 facet normal 0.936234 -0.351378 0
  outer loop
   vertex 0.0946327 -0.032321 0.1
   vertex 0.0925304 -0.0379225 0
   vertex 0.0946327 -0.032321 0
  endloop
 endfacet
 facet normal 0.955571 -0.294762 0
  outer loop
   vertex 0.0946327 -0.032321 0.1
   vertex 0.0946327 -0.032321 0
   vertex 0.0963963 -0.0266037 0.1
  endloop
 endfacet
 facet normal 0.955571 -0.294762 0
  outer loop
   vertex 0.0963963 -0.0266037 0.1
   vertex 0.0946327 -0.032321 0
   vertex 0.0963963 -0.0266037 0
  endloop
 endfacet
 facet normal 0.971489 -0.237085 0
  outer loop
   vertex 0.0963963 -0.0266037 0.1
   vertex 0.0963963 -0.0266037 0
   vertex 0.0978148 -0.0207912 0.1
  endloop
 endfacet
 facet normal 0.971489 -0.237085 0
  outer loop
   vertex 0.0978148 -0.0207912 0.1
   vertex 0.0963963 -0.0266037 0
   vertex 0.0978148 -0.0207912 0
  endloop
 endfacet
 facet normal 0.983931 -0.178552 0
  outer loop
   vertex 0.0978148 -0.0207912 0.1
   vertex 0.0978148 -0.0207912 0
   vertex 0.0988831 -0.0149042 0.1
  endloop
 endfacet
 facet normal 0.983931 -0.178552 0
  outer loop
   vertex 0.0988831 -0.0149042 0.1
   vertex 0.0978148 -0.0207912 0
   vertex 0.0988831 -0.0149042 0
  endloop
 endfacet
 facet normal 0.992848 -0.119387 0
  outer loop
   vertex 0.0988831 -0.0149042 0.1
   vertex 0.0988831 -0.0149042 0
   vertex 0.0995974 -0.00896393 0.1
  endloop
 endfacet
 facet normal 0.992848 -0.119387 0
  outer loop
   vertex 0.0995974 -0.00896393 0.1
   vertex 0.0988831 -0.0149042 0
   vertex 0.0995974 -0.00896393 0
  endloop
 endfacet
 facet normal 0.99821 -0.0598018 0
  outer loop
   vertex 0.0995974 -0.00896393 0.1
   vertex 0.0995974 -0.00896393 0
   vertex 0.0999552 -0.00299155 0.1
  endloop
 endfacet
 facet normal 0.99821 -0.0598018 0
  outer loop
   vertex 0.0999552 -0.00299155 0.1
   vertex 0.0995974 -0.00896393 0
   vertex 0.0999552 -0.00299155 0
  endloop
 endfacet
 facet normal 1 -0 0
  outer loop
   vertex 0.0999552 -0.00299155 0.1
   vertex 0.0999552 -0.00299155 0
   vertex 0.0999552 0.00299155 0.1
  endloop
 endfacet
 facet normal 1 0 0
  outer loop
   vertex 0.0999552 0.00299155 0.1
   vertex 0.0999552 -0.00299155 0
   vertex 0.0999552 0.00299155 0
  endloop
 endfacet
 facet normal 0.99821 0.0598018 0
  outer loop
   vertex 0.0999552 0.00299155 0.1
   vertex 0.0999552 0.00299155 0
   vertex 0.0995974 0.00896393 0.1
  endloop
 endfacet
 facet normal 0.99821 0.0598018 0
  outer loop
   vertex 0.0995974 0.00896393 0.1
   vertex 0.0999552 0.00299155 0
   vertex 0.0995974 0.00896393 0
  endloop
 endfacet
 facet normal 0.992848 0.119387 0
  outer loop
   vertex 0.0995974 0.00896393 0.1
   vertex 0.0995974 0.00896393 0
   vertex 0.0988831 0.0149042 0.1
  endloop
 endfacet
 facet normal 0.992848 0.119387 0
  outer loop
   vertex 0.0988831 0.0149042 0.1
   vertex 0.0995974 0.00896393 0
   vertex 0.0988831 0.0149042 0
  endloop
 endfacet
 facet normal 0.983931 0.178552 0
  outer loop
   vertex 0.0988831 0.0149042 0.1
   vertex 0.0988831 0.0149042 0
   vertex 0.0978148 0.0207912 0.1
  endloop
 endfacet
 facet normal 0.983931 0.178552 0
  outer loop
   vertex 0.0978148 0.0207912 0.1
   vertex 0.0988831 0.0149042 0
   vertex 0.0978148 0.0207912 0
  endloop
 endfacet
 facet normal 0.971489 0.237085 0
  outer loop
   vertex 0.0978148 0.0207912 0.1
   vertex 0.0978148 0.0207912 0
   vertex 0.0963963 0.0266037 0.1
  endloop
 endfacet
 facet normal 0.971489 0.237085 0
  outer loop
   vertex 0.0963963 0.0266037 0.1
   vertex 0.0978148 0.0207912 0
   vertex 0.0963963 0.0266037 0
  endloop
 endfacet
 facet normal 0.955571 0.294762 0
  outer loop
   vertex 0.0963963 0.0266037 0.1
   vertex 0.0963963 0.0266037 0
   vertex 0.0946327 0.032321 0.1
  endloop
 endfacet
 facet normal 0.955571 0.294762 0
  outer loop
   vertex 0.0946327 0.032321 0.1
   vertex 0.0963963 0.0266037 0
   vertex 0.0946327 0.032321 0
  endloop
 endfacet
 facet normal 0.936234 0.351378 0
  outer loop
   vertex 0.0946327 0.032321 0.1
   vertex 0.0946327 0.032321 0
   vertex 0.0925304 0.0379225 0.1
  endloop
 endfacet
 facet normal 0.936234 0.351378 0
  outer loop
   vertex 0.0925304 0.0379225 0.1
   vertex 0.0946327 0.032321 0
   vertex 0.0925304 0.0379225 0
  endloop
 endfacet
 facet normal 0.91355 0.406726 0
  outer loop
   vertex 0.0925304 0.0379225 0.1
   vertex 0.0925304 0.0379225 0
   vertex 0.0900969 0.0433884 0.1
  endloop
 endfacet
 facet normal 0.91355 0.406726 0
  outer loop
   vertex 0.0900969 0.0433884 0.1
   vertex 0.0925304 0.0379225 0
   vertex 0.0900969 0.0433884 0
  endloop
 endfacet
 facet normal 0.887583 0.460647 0
  outer loop
   vertex 0.0900969 0.0433884 0.1
   vertex 0.0900969 0.0433884 0
   vertex 0.0873408 0.0486989 0.1
  endloop
 endfacet
 facet normal 0.887583 0.460647 0
  outer loop
   vertex 0.0873408 0.0486989 0.1
   vertex 0.0900969 0.0433884 0
   vertex 0.0873408 0.0486989 0
  endloop
 endfacet
 facet normal 0.858452 0.512895 0
  outer loop
   vertex 0.0873408 0.0486989 0.1
   vertex 0.0873408 0.0486989 0
   vertex 0.0842721 0.0538351 0.1
  endloop
 endfacet
 facet normal 0.858452 0.512895 0
  outer loop
   vertex 0.0842721 0.0538351 0.1
   vertex 0.0873408 0.0486989 0
   vertex 0.0842721 0.0538351 0
  endloop
 endfacet
 facet normal 0.826235 0.563326 0
  outer loop
   vertex 0.0842721 0.0538351 0.1
   vertex 0.0842721 0.0538351 0
   vertex 0.0809017 0.0587785 0.1
  endloop
 endfacet
 facet normal 0.826235 0.563326 0
  outer loop
   vertex 0.0809017 0.0587785 0.1
   vertex 0.0842721 0.0538351 0
   vertex 0.0809017 0.0587785 0
  endloop
 endfacet
 facet normal 0.791075 0.61172 0
  outer loop
   vertex 0.0809017 0.0587785 0.1
   vertex 0.0809017 0.0587785 0
   vertex 0.0772417 0.0635116 0.1
  endloop
 endfacet
 facet normal 0.791075 0.61172 0
  outer loop
   vertex 0.0772417 0.0635116 0.1
   vertex 0.0809017 0.0587785 0
   vertex 0.0772417 0.0635116 0
  endloop
 endfacet
 facet normal 0.753072 0.657938 0
  outer loop
   vertex 0.0772417 0.0635116 0.1
   vertex 0.0772417 0.0635116 0
   vertex 0.0733052 0.0680173 0.1
  endloop
 endfacet
 facet normal 0.753072 0.657938 0
  outer loop
   vertex 0.0733052 0.0680173 0.1
   vertex 0.0772417 0.0635116 0
   vertex 0.0733052 0.0680173 0
  endloop
 endfacet
 facet normal 0.712378 0.701796 0
  outer loop
   vertex 0.0733052 0.0680173 0.1
   vertex 0.0733052 0.0680173 0
   vertex 0.0691063 0.0722795 0.1
  endloop
 endfacet
 facet normal 0.712378 0.701796 0
  outer loop
   vertex 0.0691063 0.0722795 0.1
   vertex 0.0733052 0.0680173 0
   vertex 0.0691063 0.0722795 0
  endloop
 endfacet
 facet normal 0.669133 0.743142 0
  outer loop
   vertex 0.0691063 0.0722795 0.1
   vertex 0.0691063 0.0722795 0
   vertex 0.06466 0.076283 0.1
  endloop
 endfacet
 facet normal 0.669133 0.743142 0
  outer loop
   vertex 0.06466 0.076283 0.1
   vertex 0.0691063 0.0722795 0
   vertex 0.06466 0.076283 0
  endloop
 endfacet
 facet normal 0.623488 0.781833 0
  outer loop
   vertex 0.06466 0.076283 0.1
   vertex 0.06466 0.076283 0
   vertex 0.0599822 0.0800134 0.1
  endloop
 endfacet
 facet normal 0.623488 0.781833 0
  outer loop
   vertex 0.0599822 0.0800134 0.1
   vertex 0.06466 0.076283 0
   vertex 0.0599822 0.0800134 0
  endloop
 endfacet
 facet normal 0.575608 0.817726 0
  outer loop
   vertex 0.0599822 0.0800134 0.1
   vertex 0.0599822 0.0800134 0
   vertex 0.0550897 0.0834573 0.1
  endloop
 endfacet
 facet normal 0.575608 0.817726 0
  outer loop
   vertex 0.0550897 0.0834573 0.1
   vertex 0.0599822 0.0800134 0
   vertex 0.0550897 0.0834573 0
  endloop
 endfacet
 facet normal 0.525682 0.850681 0
  outer loop
   vertex 0.0550897 0.0834573 0.1
   vertex 0.0550897 0.0834573 0
   vertex 0.05 0.0866025 0.1
  endloop
 endfacet
 facet normal 0.525682 0.850681 0
  outer loop
   vertex 0.05 0.0866025 0.1
   vertex 0.0550897 0.0834573 0
   vertex 0.05 0.0866025 0
  endloop
 endfacet
 facet normal 0.473867 0.880596 0
  outer loop
   vertex 0.05 0.0866025 0.1
   vertex 0.05 0.0866025 0
   vertex 0.0447313 0.0894377 0.1
  endloop
 endfacet
 facet normal 0.473867 0.880596 0
  outer loop
   vertex 0.0447313 0.0894377 0.1
   vertex 0.05 0.0866025 0
   vertex 0.0447313 0.0894377 0
  endloop
 endfacet
 facet normal 0.420367 0.907354 0
  outer loop
   vertex 0.0447313 0.0894377 0.1
   vertex 0.0447313 0.0894377 0
   vertex 0.0393025 0.0919528 0.1
  endloop
 endfacet
 facet normal 0.420367 0.907354 0
  outer loop
   vertex 0.0393025 0.0919528 0.1
   vertex 0.0447313 0.0894377 0
   vertex 0.0393025 0.0919528 0
  endloop
 endfacet
 facet normal 0.365331 0.930878 0
  outer loop
   vertex 0.0393025 0.0919528 0.1
   vertex 0.0393025 0.0919528 0
   vertex 0.033733 0.0941386 0.1
  endloop
 endfacet
 facet normal 0.365331 0.930878 0
  outer loop
   vertex 0.033733 0.0941386 0.1
   vertex 0.0393025 0.0919528 0
   vertex 0.033733 0.0941386 0
  endloop
 endfacet
 facet normal 0.309018 0.951056 0
  outer loop
   vertex 0.033733 0.0941386 0.1
   vertex 0.033733 0.0941386 0
   vertex 0.0280427 0.0959875 0.1
  endloop
 endfacet
 facet normal 0.309018 0.951056 0
  outer loop
   vertex 0.0280427 0.0959875 0.1
   vertex 0.033733 0.0941386 0
   vertex 0.0280427 0.0959875 0
  endloop
 endfacet
 facet normal 0.251594 0.967833 0
  outer loop
   vertex 0.0280427 0.0959875 0.1
   vertex 0.0280427 0.0959875 0
   vertex 0.0222521 0.0974928 0.1
  endloop
 endfacet
 facet normal 0.251594 0.967833 0
  outer loop
   vertex 0.0222521 0.0974928 0.1
   vertex 0.0280427 0.0959875 0
   vertex 0.0222521 0.0974928 0
  endloop
 endfacet
 facet normal 0.193261 0.981147 0
  outer loop
   vertex 0.0222521 0.0974928 0.1
   vertex 0.0222521 0.0974928 0
   vertex 0.0163818 0.0986491 0.1
  endloop
 endfacet
 facet normal 0.193261 0.981147 0
  outer loop
   vertex 0.0163818 0.0986491 0.1
   vertex 0.0222521 0.0974928 0
   vertex 0.0163818 0.0986491 0
  endloop
 endfacet
 facet normal 0.134227 0.990951 0
  outer loop
   vertex 0.0163818 0.0986491 0.1
   vertex 0.0163818 0.0986491 0
   vertex 0.0104528 0.0994522 0.1
  endloop
 endfacet
 facet normal 0.134227 0.990951 0
  outer loop
   vertex 0.0104528 0.0994522 0.1
   vertex 0.0163818 0.0986491 0
   vertex 0.0104528 0.0994522 0
  endloop
 endfacet
 facet normal 0.0747281 0.997204 0
  outer loop
   vertex 0.0104528 0.0994522 0.1
   vertex 0.0104528 0.0994522 0
   vertex 0.00448648 0.0998993 0.1
  endloop
 endfacet
 facet normal 0.0747281 0.997204 0
  outer loop
   vertex 0.00448648 0.0998993 0.1
   vertex 0.0104528 0.0994522 0
   vertex 0.00448648 0.0998993 0
  endloop
 endfacet
 facet normal 0.0149595 0.999888 0
  outer loop
   vertex 0.00448648 0.0998993 0.1
   vertex 0.00448648 0.0998993 0
   vertex -0.00149594 0.0999888 0.1
  endloop
 endfacet
 facet normal 0.0149595 0.999888 0
  outer loop
   vertex -0.00149594 0.0999888 0.1
   vertex 0.00448648 0.0998993 0
   vertex -0.00149594 0.0999888 0
  endloop
 endfacet
 facet normal -0.0448597 0.998993 0
  outer loop
   vertex -0.00149594 0.0999888 0.1
   vertex -0.00149594 0.0999888 0
   vertex -0.00747301 0.0997204 0.1
  endloop
 endfacet
 facet normal -0.0448597 0.998993 0
  outer loop
   vertex -0.00747301 0.0997204 0.1
   vertex -0.00149594 0.0999888 0
   vertex -0.00747301 0.0997204 0
  endloop
 endfacet
 facet normal -0.104529 0.994522 0
  outer loop
   vertex -0.00747301 0.0997204 0.1
   vertex -0.00747301 0.0997204 0
   vertex -0.0134233 0.099095 0.1
  endloop
 endfacet
 facet normal -0.104529 0.994522 0
  outer loop
   vertex -0.0134233 0.099095 0.1
   vertex -0.00747301 0.0997204 0
   vertex -0.0134233 0.099095 0
  endloop
 endfacet
 facet normal -0.163827 0.986489 0
  outer loop
   vertex -0.0134233 0.099095 0.1
   vertex -0.0134233 0.099095 0
   vertex -0.0193256 0.0981148 0.1
  endloop
 endfacet
 facet normal -0.163827 0.986489 0
  outer loop
   vertex -0.0193256 0.0981148 0.1
   vertex -0.0134233 0.099095 0
   vertex -0.0193256 0.0981148 0
  endloop
 endfacet
 facet normal -0.222511 0.97493 0
  outer loop
   vertex -0.0193256 0.0981148 0.1
   vertex -0.0193256 0.0981148 0
   vertex -0.0251587 0.0967835 0.1
  endloop
 endfacet
 facet normal -0.222511 0.97493 0
  outer loop
   vertex -0.0251587 0.0967835 0.1
   vertex -0.0193256 0.0981148 0
   vertex -0.0251587 0.0967835 0
  endloop
 endfacet
 facet normal -0.280424 0.959876 0
  outer loop
   vertex -0.0251587 0.0967835 0.1
   vertex -0.0251587 0.0967835 0
   vertex -0.0309017 0.0951057 0.1
  endloop
 endfacet
 facet normal -0.280424 0.959876 0
  outer loop
   vertex -0.0309017 0.0951057 0.1
   vertex -0.0251587 0.0967835 0
   vertex -0.0309017 0.0951057 0
  endloop
 endfacet
 facet normal -0.337334 0.941385 0
  outer loop
   vertex -0.0309017 0.0951057 0.1
   vertex -0.0309017 0.0951057 0
   vertex -0.0365341 0.0930874 0.1
  endloop
 endfacet
 facet normal -0.337334 0.941385 0
  outer loop
   vertex -0.0365341 0.0930874 0.1
   vertex -0.0309017 0.0951057 0
   vertex -0.0365341 0.0930874 0
  endloop
 endfacet
 facet normal -0.393026 0.919528 0
  outer loop
   vertex -0.0365341 0.0930874 0.1
   vertex -0.0365341 0.0930874 0
   vertex -0.0420357 0.0907359 0.1
  endloop
 endfacet
 facet normal -0.393026 0.919528 0
  outer loop
   vertex -0.0420357 0.0907359 0.1
   vertex -0.0365341 0.0930874 0
   vertex -0.0420357 0.0907359 0
  endloop
 endfacet
 facet normal -0.447307 0.89438 0
  outer loop
   vertex -0.0420357 0.0907359 0.1
   vertex -0.0420357 0.0907359 0
   vertex -0.0473869 0.0880596 0.1
  endloop
 endfacet
 facet normal -0.447307 0.89438 0
  outer loop
   vertex -0.0473869 0.0880596 0.1
   vertex -0.0420357 0.0907359 0
   vertex -0.0473869 0.0880596 0
  endloop
 endfacet
 facet normal -0.500007 0.866021 0
  outer loop
   vertex -0.0473869 0.0880596 0.1
   vertex -0.0473869 0.0880596 0
   vertex -0.0525684 0.085068 0.1
  endloop
 endfacet
 facet normal -0.500007 0.866021 0
  outer loop
   vertex -0.0525684 0.085068 0.1
   vertex -0.0473869 0.0880596 0
   vertex -0.0525684 0.085068 0
  endloop
 endfacet
 facet normal -0.550903 0.834569 0
  outer loop
   vertex -0.0525684 0.085068 0.1
   vertex -0.0525684 0.085068 0
   vertex -0.0575617 0.0817719 0.1
  endloop
 endfacet
 facet normal -0.550903 0.834569 0
  outer loop
   vertex -0.0575617 0.0817719 0.1
   vertex -0.0525684 0.085068 0
   vertex -0.0575617 0.0817719 0
  endloop
 endfacet
 facet normal -0.599811 0.800142 0
  outer loop
   vertex -0.0575617 0.0817719 0.1
   vertex -0.0575617 0.0817719 0
   vertex -0.062349 0.0781832 0.1
  endloop
 endfacet
 facet normal -0.599811 0.800142 0
  outer loop
   vertex -0.062349 0.0781832 0.1
   vertex -0.0575617 0.0817719 0
   vertex -0.062349 0.0781832 0
  endloop
 endfacet
 facet normal -0.646601 0.762828 0
  outer loop
   vertex -0.062349 0.0781832 0.1
   vertex -0.062349 0.0781832 0
   vertex -0.0669131 0.0743145 0.1
  endloop
 endfacet
 facet normal -0.646601 0.762828 0
  outer loop
   vertex -0.0669131 0.0743145 0.1
   vertex -0.062349 0.0781832 0
   vertex -0.0669131 0.0743145 0
  endloop
 endfacet
 facet normal -0.691067 0.722791 0
  outer loop
   vertex -0.0669131 0.0743145 0.1
   vertex -0.0669131 0.0743145 0
   vertex -0.0712376 0.0701798 0.1
  endloop
 endfacet
 facet normal -0.691067 0.722791 0
  outer loop
   vertex -0.0712376 0.0701798 0.1
   vertex -0.0669131 0.0743145 0
   vertex -0.0712376 0.0701798 0
  endloop
 endfacet
 facet normal -0.733053 0.680171 0
  outer loop
   vertex -0.0712376 0.0701798 0.1
   vertex -0.0712376 0.0701798 0
   vertex -0.0753071 0.0657939 0.1
  endloop
 endfacet
 facet normal -0.733053 0.680171 0
  outer loop
   vertex -0.0753071 0.0657939 0.1
   vertex -0.0712376 0.0701798 0
   vertex -0.0753071 0.0657939 0
  endloop
 endfacet
 facet normal -0.772418 0.635115 0
  outer loop
   vertex -0.0753071 0.0657939 0.1
   vertex -0.0753071 0.0657939 0
   vertex -0.0791071 0.0611724 0.1
  endloop
 endfacet
 facet normal -0.772418 0.635115 0
  outer loop
   vertex -0.0791071 0.0611724 0.1
   vertex -0.0753071 0.0657939 0
   vertex -0.0791071 0.0611724 0
  endloop
 endfacet
 facet normal -0.809013 0.58779 0
  outer loop
   vertex -0.0791071 0.0611724 0.1
   vertex -0.0791071 0.0611724 0
   vertex -0.0826239 0.056332 0.1
  endloop
 endfacet
 facet normal -0.809013 0.58779 0
  outer loop
   vertex -0.0826239 0.056332 0.1
   vertex -0.0791071 0.0611724 0
   vertex -0.0826239 0.056332 0
  endloop
 endfacet
 facet normal -0.842722 0.538349 0
  outer loop
   vertex -0.0826239 0.056332 0.1
   vertex -0.0826239 0.056332 0
   vertex -0.0858449 0.0512899 0.1
  endloop
 endfacet
 facet normal -0.842722 0.538349 0
  outer loop
   vertex -0.0858449 0.0512899 0.1
   vertex -0.0826239 0.056332 0
   vertex -0.0858449 0.0512899 0
  endloop
 endfacet
 facet normal -0.873408 0.486988 0
  outer loop
   vertex -0.0858449 0.0512899 0.1
   vertex -0.0858449 0.0512899 0
   vertex -0.0887586 0.0460642 0.1
  endloop
 endfacet
 facet normal -0.873408 0.486988 0
  outer loop
   vertex -0.0887586 0.0460642 0.1
   vertex -0.0858449 0.0512899 0
   vertex -0.0887586 0.0460642 0
  endloop
 endfacet
 facet normal -0.900971 0.433879 0
  outer loop
   vertex -0.0887586 0.0460642 0.1
   vertex -0.0887586 0.0460642 0
   vertex -0.0913545 0.0406737 0.1
  endloop
 endfacet
 facet normal -0.900971 0.433879 0
  outer loop
   vertex -0.0913545 0.0406737 0.1
   vertex -0.0887586 0.0460642 0
   vertex -0.0913545 0.0406737 0
  endloop
 endfacet
 facet normal -0.925301 0.379233 0
  outer loop
   vertex -0.0913545 0.0406737 0.1
   vertex -0.0913545 0.0406737 0
   vertex -0.0936235 0.0351375 0.1
  endloop
 endfacet
 facet normal -0.925301 0.379233 0
  outer loop
   vertex -0.0936235 0.0351375 0.1
   vertex -0.0913545 0.0406737 0
   vertex -0.0936235 0.0351375 0
  endloop
 endfacet
 facet normal -0.946327 0.32321 0
  outer loop
   vertex -0.0936235 0.0351375 0.1
   vertex -0.0936235 0.0351375 0
   vertex -0.0955573 0.0294755 0.1
  endloop
 endfacet
 facet normal -0.946327 0.32321 0
  outer loop
   vertex -0.0955573 0.0294755 0.1
   vertex -0.0936235 0.0351375 0
   vertex -0.0955573 0.0294755 0
  endloop
 endfacet
 facet normal -0.963964 0.266032 0
  outer loop
   vertex -0.0955573 0.0294755 0.1
   vertex -0.0955573 0.0294755 0
   vertex -0.097149 0.023708 0.1
  endloop
 endfacet
 facet normal -0.963964 0.266032 0
  outer loop
   vertex -0.097149 0.023708 0.1
   vertex -0.0955573 0.0294755 0
   vertex -0.097149 0.023708 0
  endloop
 endfacet
 facet normal -0.978146 0.207921 0
  outer loop
   vertex -0.097149 0.023708 0.1
   vertex -0.097149 0.023708 0
   vertex -0.098393 0.0178557 0.1
  endloop
 endfacet
 facet normal -0.978146 0.207921 0
  outer loop
   vertex -0.098393 0.0178557 0.1
   vertex -0.097149 0.023708 0
   vertex -0.098393 0.0178557 0
  endloop
 endfacet
 facet normal -0.988832 0.149036 0
  outer loop
   vertex -0.098393 0.0178557 0.1
   vertex -0.098393 0.0178557 0
   vertex -0.0992847 0.0119394 0.1
  endloop
 endfacet
 facet normal -0.988832 0.149036 0
  outer loop
   vertex -0.0992847 0.0119394 0.1
   vertex -0.098393 0.0178557 0
   vertex -0.0992847 0.0119394 0
  endloop
 endfacet
 facet normal -0.995975 0.0896364 0
  outer loop
   vertex -0.0992847 0.0119394 0.1
   vertex -0.0992847 0.0119394 0
   vertex -0.099821 0.00598042 0.1
  endloop
 endfacet
 facet normal -0.995975 0.0896364 0
  outer loop
   vertex -0.099821 0.00598042 0.1
   vertex -0.0992847 0.0119394 0
   vertex -0.099821 0.00598042 0
  endloop
 endfacet
 facet normal 0 -0 1
  outer loop
   vertex -0.099821 -0.00598042 0.1
   vertex 0.0999552 -0.00299155 0.1
   vertex -0.1 -1.22465e-17 0.1
  endloop
 endfacet
 facet normal -0 0 1
  outer loop
   vertex -0.1 -1.22465e-17 0.1
   vertex 0.0999552 -0.00299155 0.1
   vertex 0.0999552 0.00299155 0.1
  endloop
 endfacet
 facet normal 0 0 1
  outer loop
   vertex -0.1 -1.22465e-17 0.1
   vertex 0.0999552 0.00299155 0.1
   vertex -0.099821 0.00598042 0.1
  endloop
 endfacet
 facet normal -0 0 1
  outer loop
   vertex -0.099821 0.00598042 0.1
   vertex 0.0999552 0.00299155 0.1
   vertex 0.0995974 0.00896393 0.1
  endloop
 endfacet
 facet normal 0 0 1
  outer loop
   vertex -0.099821 0.00598042 0.1
   vertex 0.0995974 0.00896393 0.1
   vertex -0.0992847 0.0119394 0.1
  endloop
 endfacet
 facet normal -0 0 1
  outer loop
   vertex -0.0992847 0.0119394 0.1
   vertex 0.0995974 0.00896393 0.1
   vertex 0.0988831 0.0149042 0.1
  endloop
 endfacet
 facet normal 0 0 1
  outer loop
   vertex -0.0992847 0.0119394 0.1
   vertex 0.0988831 0.0149042 0.1
   vertex -0.098393 0.0178557 0.1
  endloop
 endfacet
 facet normal -0 0 1
  outer loop
   vertex -0.098393 0.0178557 0.1
   vertex 0.0988831 0.0149042 0.1
   vertex 0.0978148 0.0207912 0.1
  endloop
 endfacet
 facet normal 0 0 1
  outer loop
   vertex -0.098393 0.0178557 0.1
   vertex 0.0978148 0.0207912 0.1
   vertex -0.097149 0.023708 0.1
  endloop
 endfacet
 facet normal -0 0 1
  outer loop
   vertex -0.097149 0.023708 0.1
   vertex 0.0978148 0.0207912 0.1
   vertex 0.0963963 0.0266037 0.1
  endloop
 endfacet
 facet normal 0 0 1
  outer loop
   vertex -0.097149 0.023708 0.1
   vertex 0.0963963 0.0266037 0.1
   vertex -0.0955573 0.0294755 0.1
  endloop
 endfacet
 facet normal -0 0 1
  outer loop
   vertex -0.0955573 0.0294755 0.1
   vertex 0.0963963 0.0266037 0.1
   vertex -0.0936235 0.0351375 0.1
  endloop
 endfacet
 facet normal -0 0 1
  outer loop
   vertex -0.0936235 0.0351375 0.1
   vertex 0.0963963 0.0266037 0.1
   vertex -0.0913545 0.0406737 0.1
  endloop
 endfacet
 facet normal -0 0 1
  outer loop
   vertex -0.0913545 0.0406737 0.1
   vertex 0.0963963 0.0266037 0.1
   vertex -0.0887586 0.0460642 0.1
  endloop
 endfacet
 facet normal -0 0 1
  outer loop
   vertex -0.0887586 0.0460642 0.1
   vertex 0.0963963 0.0266037 0.1
   vertex -0.0858449 0.0512899 0.1
  endloop
 endfacet
 facet normal 0 0 1
  outer loop
   vertex -0.0858449 0.0512899 0.1
   vertex 0.0963963 0.0266037 0.1
   vertex 0.0946327 0.032321 0.1
  endloop
 endfacet
 facet normal -0 0 1
  outer loop
   vertex -0.0858449 0.0512899 0.1
   vertex 0.0946327 0.032321 0.1
   vertex -0.0826239 0.056332 0.1
  endloop
 endfacet
 facet normal -0 0 1
  outer loop
   vertex -0.0826239 0.056332 0.1
   vertex 0.0946327 0.032321 0.1
   vertex -0.0791071 0.0611724 0.1
  endloop
 endfacet
 facet normal -0 0 1
  outer loop
   vertex -0.0791071 0.0611724 0.1
   vertex 0.0946327 0.032321 0.1
   vertex -0.0753071 0.0657939 0.1
  endloop
 endfacet
 facet normal -0 0 1
  outer loop
   vertex -0.0753071 0.0657939 0.1
   vertex 0.0946327 0.032321 0.1
   vertex -0.0712376 0.0701798 0.1
  endloop
 endfacet
 facet normal -0 0 1
  outer loop
   vertex -0.0712376 0.0701798 0.1
   vertex 0.0946327 0.032321 0.1
   vertex -0.0669131 0.0743145 0.1
  endloop
 endfacet
 facet normal -0 0 1
  outer loop
   vertex -0.0669131 0.0743145 0.1
   vertex 0.0946327 0.032321 0.1
   vertex -0.062349 0.0781832 0.1
  endloop
 endfacet
 facet normal -0 0 1
  outer loop
   vertex -0.062349 0.0781832 0.1
   vertex 0.0946327 0.032321 0.1
   vertex -0.0575617 0.0817719 0.1
  endloop
 endfacet
 facet normal -0 0 1
  outer loop
   vertex -0.0575617 0.0817719 0.1
   vertex 0.0946327 0.032321 0.1
   vertex -0.0525684 0.085068 0.1
  endloop
 endfacet
 facet normal -0 0 1
  outer loop
   vertex -0.0525684 0.085068 0.1
   vertex 0.0946327 0.032321 0.1
   vertex -0.0473869 0.0880596 0.1
  endloop
 endfacet
 facet normal -0 0 1
  outer loop
   vertex -0.0473869 0.0880596 0.1
   vertex 0.0946327 0.032321 0.1
   vertex -0.0420357 0.0907359 0.1
  endloop
 endfacet
 facet normal -0 0 1
  outer loop
   vertex -0.0420357 0.0907359 0.1
   vertex 0.0946327 0.032321 0.1
   vertex -0.0365341 0.0930874 0.1
  endloop
 endfacet
 facet normal -0 0 1
  outer loop
   vertex -0.0365341 0.0930874 0.1
   vertex 0.0946327 0.032321 0.1
   vertex -0.0309017 0.0951057 0.1
  endloop
 endfacet
 facet normal -0 0 1
  outer loop
   vertex -0.0309017 0.0951057 0.1
   vertex 0.0946327 0.032321 0.1
   vertex -0.0251587 0.0967835 0.1
  endloop
 endfacet
 facet normal -0 0 1
  outer loop
   vertex -0.0251587 0.0967835 0.1
   vertex 0.0946327 0.032321 0.1
   vertex -0.0193256 0.0981148 0.1
  endloop
 endfacet
 facet normal -0 0 1
  outer loop
   vertex -0.0193256 0.0981148 0.1
   vertex 0.0946327 0.032321 0.1
   vertex -0.0134233 0.099095 0.1
  endloop
 endfacet
 facet normal -0 0 1
  outer loop
   vertex -0.0134233 0.099095 0.1
   vertex 0.0946327 0.032321 0.1
   vertex -0.00747301 0.0997204 0.1
  endloop
 endfacet
 facet normal -0 0 1
  outer loop
   vertex -0.00747301 0.0997204 0.1
   vertex 0.0946327 0.032321 0.1
   vertex -0.00149594 0.0999888 0.1
  endloop
 endfacet
 facet normal 0 0 1
  outer loop
   vertex -0.00149594 0.0999888 0.1
   vertex 0.0946327 0.032321 0.1
   vertex 0.00448648 0.0998993 0.1
  endloop
 endfacet
 facet normal 0 0 1
  outer loop
   vertex 0.00448648 0.0998993 0.1
   vertex 0.0946327 0.032321 0.1
   vertex 0.0104528 0.0994522 0.1
  endloop
 endfacet
 facet normal 0 0 1
  outer loop
   vertex 0.0104528 0.0994522 0.1
   vertex 0.0946327 0.032321 0.1
   vertex 0.0163818 0.0986491 0.1
  endloop
 endfacet
 facet normal 0 0 1
  outer loop
   vertex 0.0163818 0.0986491 0.1
   vertex 0.0946327 0.032321 0.1
   vertex 0.0222521 0.0974928 0.1
  endloop
 endfacet
 facet normal 0 0 1
  outer loop
   vertex 0.0222521 0.0974928 0.1
   vertex 0.0946327 0.032321 0.1
   vertex 0.0280427 0.0959875 0.1
  endloop
 endfacet
 facet normal 0 0 1
  outer loop
   vertex 0.0280427 0.0959875 0.1
   vertex 0.0946327 0.032321 0.1
   vertex 0.033733 0.0941386 0.1
  endloop
 endfacet
 facet normal 0 0 1
  outer loop
   vertex 0.033733 0.0941386 0.1
   vertex 0.0946327 0.032321 0.1
   vertex 0.0393025 0.0919528 0.1
  endloop
 endfacet
 facet normal 0 0 1
  outer loop
   vertex 0.0393025 0.0919528 0.1
   vertex 0.0946327 0.032321 0.1
   vertex 0.0447313 0.0894377 0.1
  endloop
 endfacet
 facet normal 0 0 1
  outer loop
   vertex 0.0447313 0.0894377 0.1
   vertex 0.0946327 0.032321 0.1
   vertex 0.05 0.0866025 0.1
  endloop
 endfacet
 facet normal 0 0 1
  outer loop
   vertex 0.05 0.0866025 0.1
   vertex 0.0946327 0.032321 0.1
   vertex 0.0550897 0.0834573 0.1
  endloop
 endfacet
 facet normal 0 0 1
  outer loop
   vertex 0.0550897 0.0834573 0.1
   vertex 0.0946327 0.032321 0.1
   vertex 0.0599822 0.0800134 0.1
  endloop
 endfacet
 facet normal 0 0 1
  outer loop
   vertex 0.0599822 0.0800134 0.1
   vertex 0.0946327 0.032321 0.1
   vertex 0.06466 0.076283 0.1
  endloop
 endfacet
 facet normal 0 0 1
  outer loop
   vertex 0.06466 0.076283 0.1
   vertex 0.0946327 0.032321 0.1
   vertex 0.0691063 0.0722795 0.1
  endloop
 endfacet
 facet normal 0 0 1
  outer loop
   vertex 0.0691063 0.0722795 0.1
   vertex 0.0946327 0.032321 0.1
   vertex 0.0733052 0.0680173 0.1
  endloop
 endfacet
 facet normal 0 0 1
  outer loop
   vertex 0.0733052 0.0680173 0.1
   vertex 0.0946327 0.032321 0.1
   vertex 0.0772417 0.0635116 0.1
  endloop
 endfacet
 facet normal 0 0 1
  outer loop
   vertex 0.0772417 0.0635116 0.1
   vertex 0.0946327 0.032321 0.1
   vertex 0.0809017 0.0587785 0.1
  endloop
 endfacet
 facet normal 0 0 1
  outer loop
   vertex 0.0809017 0.0587785 0.1
   vertex 0.0946327 0.032321 0.1
   vertex 0.0842721 0.0538351 0.1
  endloop
 endfacet
 facet normal 0 0 1
  outer loop
   vertex 0.0842721 0.0538351 0.1
   vertex 0.0946327 0.032321 0.1
   vertex 0.0873408 0.0486989 0.1
  endloop
 endfacet
 facet normal 0 0 1
  outer loop
   vertex 0.0873408 0.0486989 0.1
   vertex 0.0946327 0.032321 0.1
   vertex 0.0900969 0.0433884 0.1
  endloop
 endfacet
 facet normal 0 0 1
  outer loop
   vertex 0.0900969 0.0433884 0.1
   vertex 0.0946327 0.032321 0.1
   vertex 0.0925304 0.0379225 0.1
  endloop
 endfacet
 facet normal 0 0 1
  outer loop
   vertex 0.0999552 -0.00299155 0.1
   vertex -0.099821 -0.00598042 0.1
   vertex 0.0995974 -0.00896393 0.1
  endloop
 endfacet
 facet normal 0 0 1
  outer loop
   vertex 0.0995974 -0.00896393 0.1
   vertex -0.099821 -0.00598042 0.1
   vertex -0.0992847 -0.0119394 0.1
  endloop
 endfacet
 facet normal 0 0 1
  outer loop
   vertex 0.0995974 -0.00896393 0.1
   vertex -0.0992847 -0.0119394 0.1
   vertex 0.0988831 -0.0149042 0.1
  endloop
 endfacet
 facet normal 0 0 1
  outer loop
   vertex 0.0988831 -0.0149042 0.1
   vertex -0.0992847 -0.0119394 0.1
   vertex -0.098393 -0.0178557 0.1
  endloop
 endfacet
 facet normal 0 0 1
  outer loop
   vertex 0.0988831 -0.0149042 0.1
   vertex -0.098393 -0.0178557 0.1
   vertex 0.0978148 -0.0207912 0.1
  endloop
 endfacet
 facet normal 0 0 1
  outer loop
   vertex 0.0978148 -0.0207912 0.1
   vertex -0.098393 -0.0178557 0.1
   vertex -0.097149 -0.023708 0.1
  endloop
 endfacet
 facet normal 0 0 1
  outer loop
   vertex 0.0978148 -0.0207912 0.1
   vertex -0.097149 -0.023708 0.1
   vertex 0.0963963 -0.0266037 0.1
  endloop
 endfacet
 facet normal 0 0 1
  outer loop
   vertex 0.0963963 -0.0266037 0.1
   vertex -0.097149 -0.023708 0.1
   vertex -0.0955573 -0.0294755 0.1
  endloop
 endfacet
 facet normal 0 0 1
  outer loop
   vertex 0.0963963 -0.0266037 0.1
   vertex -0.0955573 -0.0294755 0.1
   vertex 0.0946327 -0.032321 0.1
  endloop
 endfacet
 facet normal 0 0 1
  outer loop
   vertex 0.0946327 -0.032321 0.1
   vertex -0.0955573 -0.0294755 0.1
   vertex -0.0936235 -0.0351375 0.1
  endloop
 endfacet
 facet normal 0 0 1
  outer loop
   vertex 0.0946327 -0.032321 0.1
   vertex -0.0936235 -0.0351375 0.1
   vertex 0.0925304 -0.0379225 0.1
  endloop
 endfacet
 facet normal 0 0 1
  outer loop
   vertex 0.0925304 -0.0379225 0.1
   vertex -0.0936235 -0.0351375 0.1
   vertex -0.0913545 -0.0406737 0.1
  endloop
 endfacet
 facet normal 0 0 1
  outer loop
   vertex 0.0925304 -0.0379225 0.1
   vertex -0.0913545 -0.0406737 0.1
   vertex 0.0900969 -0.0433884 0.1
  endloop
 endfacet
 facet normal 0 0 1
  outer loop
   vertex 0.0900969 -0.0433884 0.1
   vertex -0.0913545 -0.0406737 0.1
   vertex -0.0887586 -0.0460642 0.1
  endloop
 endfacet
 facet normal 0 0 1
  outer loop
   vertex 0.0900969 -0.0433884 0.1
   vertex -0.0887586 -0.0460642 0.1
   vertex 0.0873408 -0.0486989 0.1
  endloop
 endfacet
 facet normal 0 0 1
  outer loop
   vertex 0.0873408 -0.0486989 0.1
   vertex -0.0887586 -0.0460642 0.1
   vertex -0.0858449 -0.0512899 0.1
  endloop
 endfacet
 facet normal 0 0 1
  outer loop
   vertex 0.0873408 -0.0486989 0.1
   vertex -0.0858449 -0.0512899 0.1
   vertex 0.0842721 -0.0538351 0.1
  endloop
 endfacet
 facet normal 0 0 1
  outer loop
   vertex 0.0842721 -0.0538351 0.1
   vertex -0.0858449 -0.0512899 0.1
   vertex -0.0826239 -0.056332 0.1
  endloop
 endfacet
 facet normal 0 0 1
  outer loop
   vertex 0.0842721 -0.0538351 0.1
   vertex -0.0826239 -0.056332 0.1
   vertex 0.0809017 -0.0587785 0.1
  endloop
 endfacet
 facet normal 0 0 1
  outer loop
   vertex 0.0809017 -0.0587785 0.1
   vertex -0.0826239 -0.056332 0.1
   vertex -0.0791071 -0.0611724 0.1
  endloop
 endfacet
 facet normal 0 0 1
  outer loop
   vertex 0.0809017 -0.0587785 0.1
   vertex -0.0791071 -0.0611724 0.1
   vertex 0.0772417 -0.0635116 0.1
  endloop
 endfacet
 facet normal 0 0 1
  outer loop
   vertex 0.0772417 -0.0635116 0.1
   vertex -0.0791071 -0.0611724 0.1
   vertex -0.0753071 -0.0657939 0.1
  endloop
 endfacet
 facet normal 0 0 1
  outer loop
   vertex 0.0772417 -0.0635116 0.1
   vertex -0.0753071 -0.0657939 0.1
   vertex 0.0733052 -0.0680173 0.1
  endloop
 endfacet
 facet normal 0 0 1
  outer loop
   vertex 0.0733052 -0.0680173 0.1
   vertex -0.0753071 -0.0657939 0.1
   vertex -0.0712376 -0.0701798 0.1
  endloop
 endfacet
 facet normal 0 0 1
  outer loop
   vertex 0.0733052 -0.0680173 0.1
   vertex -0.0712376 -0.0701798 0.1
   vertex 0.0691063 -0.0722795 0.1
  endloop
 endfacet
 facet normal 0 0 1
  outer loop
   vertex 0.0691063 -0.0722795 0.1
   vertex -0.0712376 -0.0701798 0.1
   vertex -0.0669131 -0.0743145 0.1
  endloop
 endfacet
 facet normal 0 0 1
  outer loop
   vertex 0.0691063 -0.0722795 0.1
   vertex -0.0669131 -0.0743145 0.1
   vertex 0.06466 -0.076283 0.1
  endloop
 endfacet
 facet normal 0 0 1
  outer loop
   vertex 0.06466 -0.076283 0.1
   vertex -0.0669131 -0.0743145 0.1
   vertex -0.062349 -0.0781832 0.1
  endloop
 endfacet
 facet normal 0 0 1
  outer loop
   vertex 0.06466 -0.076283 0.1
   vertex -0.062349 -0.0781832 0.1
   vertex 0.0599822 -0.0800134 0.1
  endloop
 endfacet
 facet normal 0 0 1
  outer loop
   vertex 0.0599822 -0.0800134 0.1
   vertex -0.062349 -0.0781832 0.1
   vertex -0.0575617 -0.0817719 0.1
  endloop
 endfacet
 facet normal 0 0 1
  outer loop
   vertex 0.0599822 -0.0800134 0.1
   vertex -0.0575617 -0.0817719 0.1
   vertex 0.0550897 -0.0834573 0.1
  endloop
 endfacet
 facet normal 0 0 1
  outer loop
   vertex 0.0550897 -0.0834573 0.1
   vertex -0.0575617 -0.0817719 0.1
   vertex -0.0525684 -0.085068 0.1
  endloop
 endfacet
 facet normal 0 0 1
  outer loop
   vertex 0.0550897 -0.0834573 0.1
   vertex -0.0525684 -0.085068 0.1
   vertex 0.05 -0.0866025 0.1
  endloop
 endfacet
 facet normal 0 0 1
  outer loop
   vertex 0.05 -0.0866025 0.1
   vertex -0.0525684 -0.085068 0.1
   vertex -0.0473869 -0.0880596 0.1
  endloop
 endfacet
 facet normal 0 0 1
  outer loop
   vertex 0.05 -0.0866025 0.1
   vertex -0.0473869 -0.0880596 0.1
   vertex 0.0447313 -0.0894377 0.1
  endloop
 endfacet
 facet normal 0 0 1
  outer loop
   vertex 0.0447313 -0.0894377 0.1
   vertex -0.0473869 -0.0880596 0.1
   vertex -0.0420357 -0.0907359 0.1
  endloop
 endfacet
 facet normal 0 0 1
  outer loop
   vertex 0.0447313 -0.0894377 0.1
   vertex -0.0420357 -0.0907359 0.1
   vertex 0.0393025 -0.0919528 0.1
  endloop
 endfacet
 facet normal 0 0 1
  outer loop
   vertex 0.0393025 -0.0919528 0.1
   vertex -0.0420357 -0.0907359 0.1
   vertex -0.0365341 -0.0930874 0.1
  endloop
 endfacet
 facet normal 0 0 1
  outer loop
   vertex 0.0393025 -0.0919528 0.1
   vertex -0.0365341 -0.0930874 0.1
   vertex 0.033733 -0.0941386 0.1
  endloop
 endfacet
 facet normal 0 0 1
  outer loop
   vertex 0.033733 -0.0941386 0.1
   vertex -0.0365341 -0.0930874 0.1
   vertex -0.0309017 -0.0951057 0.1
  endloop
 endfacet
 facet normal 0 0 1
  outer loop
   vertex 0.033733 -0.0941386 0.1
   vertex -0.0309017 -0.0951057 0.1
   vertex 0.0280427 -0.0959875 0.1
  endloop
 endfacet
 facet normal 0 0 1
  outer loop
   vertex 0.0280427 -0.0959875 0.1
   vertex -0.0309017 -0.0951057 0.1
   vertex -0.0251587 -0.0967835 0.1
  endloop
 endfacet
 facet normal 0 0 1
  outer loop
   vertex 0.0280427 -0.0959875 0.1
   vertex -0.0251587 -0.0967835 0.1
   vertex 0.0222521 -0.0974928 0.1
  endloop
 endfacet
 facet normal 0 0 1
  outer loop
   vertex 0.0222521 -0.0974928 0.1
   vertex -0.0251587 -0.0967835 0.1
   vertex -0.0193256 -0.0981148 0.1
  endloop
 endfacet
 facet normal 0 0 1
  outer loop
   vertex 0.0222521 -0.0974928 0.1
   vertex -0.0193256 -0.0981148 0.1
   vertex 0.0163818 -0.0986491 0.1
  endloop
 endfacet
 facet normal 0 0 1
  outer loop
   vertex 0.0163818 -0.0986491 0.1
   vertex -0.0193256 -0.0981148 0.1
   vertex -0.0134233 -0.099095 0.1
  endloop
 endfacet
 facet normal 0 0 1
  outer loop
   vertex 0.0163818 -0.0986491 0.1
   vertex -0.0134233 -0.099095 0.1
   vertex 0.0104528 -0.0994522 0.1
  endloop
 endfacet
 facet normal 0 0 1
  outer loop
   vertex 0.0104528 -0.0994522 0.1
   vertex -0.0134233 -0.099095 0.1
   vertex -0.00747301 -0.0997204 0.1
  endloop
 endfacet
 facet normal 0 0 1
  outer loop
   vertex 0.0104528 -0.0994522 0.1
   vertex -0.00747301 -0.0997204 0.1
   vertex 0.00448648 -0.0998993 0.1
  endloop
 endfacet
 facet normal 0 0 1
  outer loop
   vertex 0.00448648 -0.0998993 0.1
   vertex -0.00747301 -0.0997204 0.1
   vertex -0.00149594 -0.0999888 0.1
  endloop
 endfacet
 facet normal 0 -0 -1
  outer loop
   vertex -0.099821 0.00598042 0
   vertex 0.0999552 0.00299155 0
   vertex -0.1 -1.22465e-17 0
  endloop
 endfacet
 facet normal 0 0 -1
  outer loop
   vertex -0.1 -1.22465e-17 0
   vertex 0.0999552 0.00299155 0
   vertex 0.0999552 -0.00299155 0
  endloop
 endfacet
 facet normal 0 0 -1
  outer loop
   vertex -0.1 -1.22465e-17 0
   vertex 0.0999552 -0.00299155 0
   vertex -0.099821 -0.00598042 0
  endloop
 endfacet
 facet normal 0 0 -1
  outer loop
   vertex -0.099821 -0.00598042 0
   vertex 0.0999552 -0.00299155 0
   vertex 0.0995974 -0.00896393 0
  endloop
 endfacet
 facet normal 0 0 -1
  outer loop
   vertex -0.099821 -0.00598042 0
   vertex 0.0995974 -0.00896393 0
   vertex -0.0992847 -0.0119394 0
  endloop
 endfacet
 facet normal 0 0 -1
  outer loop
   vertex -0.0992847 -0.0119394 0
   vertex 0.0995974 -0.00896393 0
   vertex 0.0988831 -0.0149042 0
  endloop
 endfacet
 facet normal 0 0 -1
  outer loop
   vertex -0.0992847 -0.0119394 0
   vertex 0.0988831 -0.0149042 0
   vertex -0.098393 -0.0178557 0
  endloop
 endfacet
 facet normal 0 0 -1
  outer loop
   vertex -0.098393 -0.0178557 0
   vertex 0.0988831 -0.0149042 0
   vertex 0.0978148 -0.0207912 0
  endloop
 endfacet
 facet normal 0 0 -1
  outer loop
   vertex -0.098393 -0.0178557 0
   vertex 0.0978148 -0.0207912 0
   vertex -0.097149 -0.023708 0
  endloop
 endfacet
 facet normal 0 0 -1
  outer loop
   vertex -0.097149 -0.023708 0
   vertex 0.0978148 -0.0207912 0
   vertex 0.0963963 -0.0266037 0
  endloop
 endfacet
 facet normal 0 0 -1
  outer loop
   vertex -0.097149 -0.023708 0
   vertex 0.0963963 -0.0266037 0
   vertex -0.0955573 -0.0294755 0
  endloop
 endfacet
 facet normal 0 0 -1
  outer loop
   vertex -0.0955573 -0.0294755 0
   vertex 0.0963963 -0.0266037 0
   vertex 0.0946327 -0.032321 0
  endloop
 endfacet
 facet normal 0 0 -1
  outer loop
   vertex -0.0955573 -0.0294755 0
   vertex 0.0946327 -0.032321 0
   vertex -0.0936235 -0.0351375 0
  endloop
 endfacet
 facet normal 0 0 -1
  outer loop
   vertex -0.0936235 -0.0351375 0
   vertex 0.0946327 -0.032321 0
   vertex 0.0925304 -0.0379225 0
  endloop
 endfacet
 facet normal 0 0 -1
  outer loop
   vertex -0.0936235 -0.0351375 0
   vertex 0.0925304 -0.0379225 0
   vertex -0.0913545 -0.0406737 0
  endloop
 endfacet
 facet normal 0 0 -1
  outer loop
   vertex -0.0913545 -0.0406737 0
   vertex 0.0925304 -0.0379225 0
   vertex 0.0900969 -0.0433884 0
  endloop
 endfacet
 facet normal 0 0 -1
  outer loop
   vertex -0.0913545 -0.0406737 0
   vertex 0.0900969 -0.0433884 0
   vertex -0.0887586 -0.0460642 0
  endloop
 endfacet
 facet normal 0 0 -1
  outer loop
   vertex -0.0887586 -0.0460642 0
   vertex 0.0900969 -0.0433884 0
   vertex 0.0873408 -0.0486989 0
  endloop
 endfacet
 facet normal 0 0 -1
  outer loop
   vertex -0.0887586 -0.0460642 0
   vertex 0.0873408 -0.0486989 0
   vertex -0.0858449 -0.0512899 0
  endloop
 endfacet
 facet normal 0 0 -1
  outer loop
   vertex -0.0858449 -0.0512899 0
   vertex 0.0873408 -0.0486989 0
   vertex 0.0842721 -0.0538351 0
  endloop
 endfacet
 facet normal 0 0 -1
  outer loop
   vertex -0.0858449 -0.0512899 0
   vertex 0.0842721 -0.0538351 0
   vertex -0.0826239 -0.056332 0
  endloop
 endfacet
 facet normal 0 0 -1
  outer loop
   vertex -0.0826239 -0.056332 0
   vertex 0.0842721 -0.0538351 0
   vertex 0.0809017 -0.0587785 0
  endloop
 endfacet
 facet normal 0 0 -1
  outer loop
   vertex -0.0826239 -0.056332 0
   vertex 0.0809017 -0.0587785 0
   vertex -0.0791071 -0.0611724 0
  endloop
 endfacet
 facet normal 0 0 -1
  outer loop
   vertex -0.0791071 -0.0611724 0
   vertex 0.0809017 -0.0587785 0
   vertex 0.0772417 -0.0635116 0
  endloop
 endfacet
 facet normal 0 0 -1
  outer loop
   vertex -0.0791071 -0.0611724 0
   vertex 0.0772417 -0.0635116 0
   vertex -0.0753071 -0.0657939 0
  endloop
 endfacet
 facet normal 0 0 -1
  outer loop
   vertex -0.0753071 -0.0657939 0
   vertex 0.0772417 -0.0635116 0
   vertex 0.0733052 -0.0680173 0
  endloop
 endfacet
 facet normal 0 0 -1
  outer loop
   vertex -0.0753071 -0.0657939 0
   vertex 0.0733052 -0.0680173 0
   vertex -0.0712376 -0.0701798 0
  endloop
 endfacet
 facet normal 0 0 -1
  outer loop
   vertex -0.0712376 -0.0701798 0
   vertex 0.0733052 -0.0680173 0
   vertex 0.0691063 -0.0722795 0
  endloop
 endfacet
 facet normal 0 0 -1
  outer loop
   vertex -0.0712376 -0.0701798 0
   vertex 0.0691063 -0.0722795 0
   vertex -0.0669131 -0.0743145 0
  endloop
 endfacet
 facet normal 0 0 -1
  outer loop
   vertex -0.0669131 -0.0743145 0
   vertex 0.0691063 -0.0722795 0
   vertex 0.06466 -0.076283 0
  endloop
 endfacet
 facet normal 0 0 -1
  outer loop
   vertex -0.0669131 -0.0743145 0
   vertex 0.06466 -0.076283 0
   vertex -0.062349 -0.0781832 0
  endloop
 endfacet
 facet normal 0 0 -1
  outer loop
   vertex -0.062349 -0.0781832 0
   vertex 0.06466 -0.076283 0
   vertex 0.0599822 -0.0800134 0
  endloop
 endfacet
 facet normal 0 0 -1
  outer loop
   vertex -0.062349 -0.0781832 0
   vertex 0.0599822 -0.0800134 0
   vertex -0.0575617 -0.0817719 0
  endloop
 endfacet
 facet normal 0 0 -1
  outer loop
   vertex -0.0575617 -0.0817719 0
   vertex 0.0599822 -0.0800134 0
   vertex 0.0550897 -0.0834573 0
  endloop
 endfacet
 facet normal 0 0 -1
  outer loop
   vertex -0.0575617 -0.0817719 0
   vertex 0.0550897 -0.0834573 0
   vertex -0.0525684 -0.085068 0
  endloop
 endfacet
 facet normal 0 0 -1
  outer loop
   vertex -0.0525684 -0.085068 0
   vertex 0.0550897 -0.0834573 0
   vertex 0.05 -0.0866025 0
  endloop
 endfacet
 facet normal 0 0 -1
  outer loop
   vertex -0.0525684 -0.085068 0
   vertex 0.05 -0.0866025 0
   vertex -0.0473869 -0.0880596 0
  endloop
 endfacet
 facet normal 0 0 -1
  outer loop
   vertex -0.0473869 -0.0880596 0
   vertex 0.05 -0.0866025 0
   vertex 0.0447313 -0.0894377 0
  endloop
 endfacet
 facet normal 0 0 -1
  outer loop
   vertex -0.0473869 -0.0880596 0
   vertex 0.0447313 -0.0894377 0
   vertex -0.0420357 -0.0907359 0
  endloop
 endfacet
 facet normal 0 0 -1
  outer loop
   vertex -0.0420357 -0.0907359 0
   vertex 0.0447313 -0.0894377 0
   vertex 0.0393025 -0.0919528 0
  endloop
 endfacet
 facet normal 0 0 -1
  outer loop
   vertex -0.0420357 -0.0907359 0
   vertex 0.0393025 -0.0919528 0
   vertex -0.0365341 -0.0930874 0
  endloop
 endfacet
 facet normal 0 0 -1
  outer loop
   vertex -0.0365341 -0.0930874 0
   vertex 0.0393025 -0.0919528 0
   vertex 0.033733 -0.0941386 0
  endloop
 endfacet
 facet normal 0 0 -1
  outer loop
   vertex -0.0365341 -0.0930874 0
   vertex 0.033733 -0.0941386 0
   vertex -0.0309017 -0.0951057 0
  endloop
 endfacet
 facet normal 0 0 -1
  outer loop
   vertex -0.0309017 -0.0951057 0
   vertex 0.033733 -0.0941386 0
   vertex 0.0280427 -0.0959875 0
  endloop
 endfacet
 facet normal 0 0 -1
  outer loop
   vertex -0.0309017 -0.0951057 0
   vertex 0.0280427 -0.0959875 0
   vertex -0.0251587 -0.0967835 0
  endloop
 endfacet
 facet normal 0 0 -1
  outer loop
   vertex -0.0251587 -0.0967835 0
   vertex 0.0280427 -0.0959875 0
   vertex 0.0222521 -0.0974928 0
  endloop
 endfacet
 facet normal 0 0 -1
  outer loop
   vertex -0.0251587 -0.0967835 0
   vertex 0.0222521 -0.0974928 0
   vertex -0.0193256 -0.0981148 0
  endloop
 endfacet
 facet normal 0 0 -1
  outer loop
   vertex -0.0193256 -0.0981148 0
   vertex 0.0222521 -0.0974928 0
   vertex 0.0163818 -0.0986491 0
  endloop
 endfacet
 facet normal 0 0 -1
  outer loop
   vertex -0.0193256 -0.0981148 0
   vertex 0.0163818 -0.0986491 0
   vertex -0.0134233 -0.099095 0
  endloop
 endfacet
 facet normal 0 0 -1
  outer loop
   vertex -0.0134233 -0.099095 0
   vertex 0.0163818 -0.0986491 0
   vertex 0.0104528 -0.0994522 0
  endloop
 endfacet
 facet normal 0 0 -1
  outer loop
   vertex -0.0134233 -0.099095 0
   vertex 0.0104528 -0.0994522 0
   vertex -0.00747301 -0.0997204 0
  endloop
 endfacet
 facet normal 0 0 -1
  outer loop
   vertex -0.00747301 -0.0997204 0
   vertex 0.0104528 -0.0994522 0
   vertex 0.00448648 -0.0998993 0
  endloop
 endfacet
 facet normal 0 0 -1
  outer loop
   vertex -0.00747301 -0.0997204 0
   vertex 0.00448648 -0.0998993 0
   vertex -0.00149594 -0.0999888 0
  endloop
 endfacet
 facet normal 0 0 -1
  outer loop
   vertex 0.0999552 0.00299155 0
   vertex -0.099821 0.00598042 0
   vertex 0.0995974 0.00896393 0
  endloop
 endfacet
 facet normal -0 0 -1
  outer loop
   vertex 0.0995974 0.00896393 0
   vertex -0.099821 0.00598042 0
   vertex -0.0992847 0.0119394 0
  endloop
 endfacet
 facet normal 0 0 -1
  outer loop
   vertex 0.0995974 0.00896393 0
   vertex -0.0992847 0.0119394 0
   vertex 0.0988831 0.0149042 0
  endloop
 endfacet
 facet normal -0 0 -1
  outer loop
   vertex 0.0988831 0.0149042 0
   vertex -0.0992847 0.0119394 0
   vertex -0.098393 0.0178557 0
  endloop
 endfacet
 facet normal 0 0 -1
  outer loop
   vertex 0.0988831 0.0149042 0
   vertex -0.098393 0.0178557 0
   vertex 0.0978148 0.0207912 0
  endloop
 endfacet
 facet normal -0 0 -1
  outer loop
   vertex 0.0978148 0.0207912 0
   vertex -0.098393 0.0178557 0
   vertex -0.097149 0.023708 0
  endloop
 endfacet
 facet normal 0 0 -1
  outer loop
   vertex 0.0978148 0.0207912 0
   vertex -0.097149 0.023708 0
   vertex 0.0963963 0.0266037 0
  endloop
 endfacet
 facet normal -0 0 -1
  outer loop
   vertex 0.0963963 0.0266037 0
   vertex -0.097149 0.023708 0
   vertex -0.0955573 0.0294755 0
  endloop
 endfacet
 facet normal 0 0 -1
  outer loop
   vertex 0.0963963 0.0266037 0
   vertex -0.0955573 0.0294755 0
   vertex -0.0936235 0.0351375 0
  endloop
 endfacet
 facet normal 0 0 -1
  outer loop
   vertex -0.0936235 0.0351375 0
   vertex -0.0913545 0.0406737 0
   vertex 0.0963963 0.0266037 0
  endloop
 endfacet
 facet normal 0 0 -1
  outer loop
   vertex 0.0963963 0.0266037 0
   vertex -0.0913545 0.0406737 0
   vertex -0.0887586 0.0460642 0
  endloop
 endfacet
 facet normal 0 0 -1
  outer loop
   vertex 0.0963963 0.0266037 0
   vertex -0.0887586 0.0460642 0
   vertex -0.0858449 0.0512899 0
  endloop
 endfacet
 facet normal 0 0 -1
  outer loop
   vertex 0.0963963 0.0266037 0
   vertex -0.0858449 0.0512899 0
   vertex 0.0946327 0.032321 0
  endloop
 endfacet
 facet normal 0 0 -1
  outer loop
   vertex 0.0946327 0.032321 0
   vertex -0.0858449 0.0512899 0
   vertex -0.0826239 0.056332 0
  endloop
 endfacet
 facet normal 0 0 -1
  outer loop
   vertex 0.0946327 0.032321 0
   vertex -0.0826239 0.056332 0
   vertex -0.0791071 0.0611724 0
  endloop
 endfacet
 facet normal 0 0 -1
  outer loop
   vertex -0.0791071 0.0611724 0
   vertex -0.0753071 0.0657939 0
   vertex 0.0946327 0.032321 0
  endloop
 endfacet
 facet normal 0 0 -1
  outer loop
   vertex 0.0946327 0.032321 0
   vertex -0.0753071 0.0657939 0
   vertex -0.0712376 0.0701798 0
  endloop
 endfacet
 facet normal 0 0 -1
  outer loop
   vertex 0.0946327 0.032321 0
   vertex -0.0712376 0.0701798 0
   vertex -0.0669131 0.0743145 0
  endloop
 endfacet
 facet normal 0 0 -1
  outer loop
   vertex -0.0669131 0.0743145 0
   vertex -0.062349 0.0781832 0
   vertex 0.0946327 0.032321 0
  endloop
 endfacet
 facet normal 0 0 -1
  outer loop
   vertex 0.0946327 0.032321 0
   vertex -0.062349 0.0781832 0
   vertex -0.0575617 0.0817719 0
  endloop
 endfacet
 facet normal 0 0 -1
  outer loop
   vertex 0.0946327 0.032321 0
   vertex -0.0575617 0.0817719 0
   vertex -0.0525684 0.085068 0
  endloop
 endfacet
 facet normal 0 0 -1
  outer loop
   vertex -0.0525684 0.085068 0
   vertex -0.0473869 0.0880596 0
   vertex 0.0946327 0.032321 0
  endloop
 endfacet
 facet normal 0 0 -1
  outer loop
   vertex 0.0946327 0.032321 0
   vertex -0.0473869 0.0880596 0
   vertex -0.0420357 0.0907359 0
  endloop
 endfacet
 facet normal 0 0 -1
  outer loop
   vertex 0.0946327 0.032321 0
   vertex -0.0420357 0.0907359 0
   vertex -0.0365341 0.0930874 0
  endloop
 endfacet
 facet normal 0 0 -1
  outer loop
   vertex -0.0365341 0.0930874 0
   vertex -0.0309017 0.0951057 0
   vertex 0.0946327 0.032321 0
  endloop
 endfacet
 facet normal 0 0 -1
  outer loop
   vertex 0.0946327 0.032321 0
   vertex -0.0309017 0.0951057 0
   vertex -0.0251587 0.0967835 0
  endloop
 endfacet
 facet normal 0 0 -1
  outer loop
   vertex 0.0946327 0.032321 0
   vertex -0.0251587 0.0967835 0
   vertex -0.0193256 0.0981148 0
  endloop
 endfacet
 facet normal 0 0 -1
  outer loop
   vertex -0.0193256 0.0981148 0
   vertex -0.0134233 0.099095 0
   vertex 0.0946327 0.032321 0
  endloop
 endfacet
 facet normal 0 0 -1
  outer loop
   vertex 0.0946327 0.032321 0
   vertex -0.0134233 0.099095 0
   vertex -0.00747301 0.0997204 0
  endloop
 endfacet
 facet normal 0 0 -1
  outer loop
   vertex 0.0946327 0.032321 0
   vertex -0.00747301 0.0997204 0
   vertex -0.00149594 0.0999888 0
  endloop
 endfacet
 facet normal 0 0 -1
  outer loop
   vertex -0.00149594 0.0999888 0
   vertex 0.00448648 0.0998993 0
   vertex 0.0946327 0.032321 0
  endloop
 endfacet
 facet normal 0 0 -1
  outer loop
   vertex 0.0946327 0.032321 0
   vertex 0.00448648 0.0998993 0
   vertex 0.0104528 0.0994522 0
  endloop
 endfacet
 facet normal 0 0 -1
  outer loop
   vertex 0.0946327 0.032321 0
   vertex 0.0104528 0.0994522 0
   vertex 0.0163818 0.0986491 0
  endloop
 endfacet
 facet normal 0 0 -1
  outer loop
   vertex 0.0163818 0.0986491 0
   vertex 0.0222521 0.0974928 0
   vertex 0.0946327 0.032321 0
  endloop
 endfacet
 facet normal 0 0 -1
  outer loop
   vertex 0.0946327 0.032321 0
   vertex 0.0222521 0.0974928 0
   vertex 0.0280427 0.0959875 0
  endloop
 endfacet
 facet normal 0 0 -1
  outer loop
   vertex 0.0946327 0.032321 0
   vertex 0.0280427 0.0959875 0
   vertex 0.033733 0.0941386 0
  endloop
 endfacet
 facet normal 0 0 -1
  outer loop
   vertex 0.033733 0.0941386 0
   vertex 0.0393025 0.0919528 0
   vertex 0.0946327 0.032321 0
  endloop
 endfacet
 facet normal 0 0 -1
  outer loop
   vertex 0.0946327 0.032321 0
   vertex 0.0393025 0.0919528 0
   vertex 0.0447313 0.0894377 0
  endloop
 endfacet
 facet normal 0 0 -1
  outer loop
   vertex 0.0946327 0.032321 0
   vertex 0.0447313 0.0894377 0
   vertex 0.05 0.0866025 0
  endloop
 endfacet
 facet normal 0 0 -1
  outer loop
   vertex 0.05 0.0866025 0
   vertex 0.0550897 0.0834573 0
   vertex 0.0946327 0.032321 0
  endloop
 endfacet
 facet normal 0 0 -1
  outer loop
   vertex 0.0946327 0.032321 0
   vertex 0.0550897 0.0834573 0
   vertex 0.0599822 0.0800134 0
  endloop
 endfacet
 facet normal 0 0 -1
  outer loop
   vertex 0.0946327 0.032321 0
   vertex 0.0599822 0.0800134 0
   vertex 0.06466 0.076283 0
  endloop
 endfacet
 facet normal 0 0 -1
  outer loop
   vertex 0.06466 0.076283 0
   vertex 0.0691063 0.0722795 0
   vertex 0.0946327 0.032321 0
  endloop
 endfacet
 facet normal 0 0 -1
  outer loop
   vertex 0.0946327 0.032321 0
   vertex 0.0691063 0.0722795 0
   vertex 0.0733052 0.0680173 0
  endloop
 endfacet
 facet normal 0 0 -1
  outer loop
   vertex 0.0946327 0.032321 0
   vertex 0.0733052 0.0680173 0
   vertex 0.0772417 0.0635116 0
  endloop
 endfacet
 facet normal 0 0 -1
  outer loop
   vertex 0.0772417 0.0635116 0
   vertex 0.0809017 0.0587785 0
   vertex 0.0946327 0.032321 0
  endloop
 endfacet
 facet normal 0 0 -1
  outer loop
   vertex 0.0946327 0.032321 0
   vertex 0.0809017 0.0587785 0
   vertex 0.0842721 0.0538351 0
  endloop
 endfacet
 facet normal 0 0 -1
  outer loop
   vertex 0.0946327 0.032321 0
   vertex 0.0842721 0.0538351 0
   vertex 0.0873408 0.0486989 0
  endloop
 endfacet
 facet normal 0 0 -1
  outer loop
   vertex 0.0873408 0.0486989 0
   vertex 0.0900969 0.0433884 0
   vertex 0.0946327 0.032321 0
  endloop
 endfacet
 facet normal 0 0 -1
  outer loop
   vertex 0.0946327 0.032321 0
   vertex 0.0900969 0.0433884 0
   vertex 0.0925304 0.0379225 0
  endloop
 endfacet
endsolid zone0
